<mxfile host="app.diagrams.net" agent="Mozilla/5.0 (Windows NT 10.0; Win64; x64) AppleWebKit/537.36 (KHTML, like Gecko) Chrome/131.0.0.0 Safari/537.36 Edg/131.0.0.0" version="24.9.3">
  <diagram name="Page-1" id="97916047-d0de-89f5-080d-49f4d83e522f">
    <mxGraphModel dx="1665" dy="2298.5" grid="1" gridSize="10" guides="1" tooltips="1" connect="1" arrows="1" fold="1" page="1" pageScale="1.5" pageWidth="1169" pageHeight="827" background="none" math="0" shadow="0">
      <root>
        <mxCell id="0" />
        <mxCell id="1" parent="0" />
        <mxCell id="f8s1FbhvS3bZ1VubUl6w-25" value="" style="rounded=1;whiteSpace=wrap;html=1;fillColor=none;dashed=1;dashPattern=8 8;strokeWidth=3;" vertex="1" parent="1">
          <mxGeometry x="110" y="-950" width="1490" height="790" as="geometry" />
        </mxCell>
        <mxCell id="qrXm8jg2_IFLuV07bRKh-69" value="&lt;p style=&quot;margin:0px;margin-top:4px;text-align:center;&quot;&gt;&lt;span&gt;&lt;font&gt;Elevator&lt;/font&gt;&lt;/span&gt;&lt;/p&gt;&lt;hr size=&quot;1&quot; style=&quot;border-style:solid;&quot;&gt;&lt;div style=&quot;text-align: center; height: 2px;&quot;&gt;&lt;font&gt;Transportation from A to B&lt;/font&gt;&lt;/div&gt;" style="verticalAlign=top;align=left;overflow=fill;html=1;gradientColor=#d3c0c0;gradientDirection=north;strokeColor=default;fontStyle=1;textShadow=0;whiteSpace=wrap;fontFamily=Times New Roman;" parent="1" vertex="1">
          <mxGeometry x="867" y="-660" width="160" height="70" as="geometry" />
        </mxCell>
        <mxCell id="qrXm8jg2_IFLuV07bRKh-87" style="edgeStyle=orthogonalEdgeStyle;rounded=0;orthogonalLoop=1;jettySize=auto;html=1;entryX=0.5;entryY=0;entryDx=0;entryDy=0;fontStyle=1;textShadow=0;fontFamily=Times New Roman;" parent="1" source="qrXm8jg2_IFLuV07bRKh-72" target="qrXm8jg2_IFLuV07bRKh-69" edge="1">
          <mxGeometry relative="1" as="geometry" />
        </mxCell>
        <mxCell id="qrXm8jg2_IFLuV07bRKh-72" value="&lt;p style=&quot;margin:0px;margin-top:4px;text-align:center;&quot;&gt;&lt;font&gt;&lt;span&gt;Traction System&lt;/span&gt;&lt;/font&gt;&lt;/p&gt;&lt;hr size=&quot;1&quot; style=&quot;border-style:solid;&quot;&gt;&lt;div style=&quot;text-align: center; height: 2px;&quot;&gt;&lt;font&gt;Actuate the car&lt;/font&gt;&lt;/div&gt;" style="verticalAlign=top;align=left;overflow=fill;html=1;fillColor=#FFFFFF;strokeColor=default;gradientColor=#FF3333;gradientDirection=north;fontStyle=1;textShadow=0;whiteSpace=wrap;fontFamily=Times New Roman;" parent="1" vertex="1">
          <mxGeometry x="867" y="-780" width="160" height="70" as="geometry" />
        </mxCell>
        <mxCell id="f8s1FbhvS3bZ1VubUl6w-31" style="edgeStyle=orthogonalEdgeStyle;rounded=0;orthogonalLoop=1;jettySize=auto;html=1;exitX=1;exitY=0.5;exitDx=0;exitDy=0;entryX=0;entryY=0.25;entryDx=0;entryDy=0;" edge="1" parent="1" source="qrXm8jg2_IFLuV07bRKh-74" target="qrXm8jg2_IFLuV07bRKh-69">
          <mxGeometry relative="1" as="geometry" />
        </mxCell>
        <mxCell id="qrXm8jg2_IFLuV07bRKh-74" value="&lt;p style=&quot;margin:0px;margin-top:4px;text-align:center;&quot;&gt;&lt;font&gt;&lt;span&gt;Mechanical Structure&lt;/span&gt;&lt;/font&gt;&lt;/p&gt;&lt;hr size=&quot;1&quot; style=&quot;border-style:solid;&quot;&gt;&lt;div style=&quot;text-align: center; height: 2px;&quot;&gt;&lt;font&gt;Ensures basic function is availible&lt;/font&gt;&lt;/div&gt;" style="verticalAlign=top;align=left;overflow=fill;html=1;gradientColor=#00FF00;gradientDirection=north;fontStyle=1;textShadow=0;whiteSpace=wrap;fontFamily=Times New Roman;" parent="1" vertex="1">
          <mxGeometry x="617" y="-540.5" width="160" height="70" as="geometry" />
        </mxCell>
        <mxCell id="f8s1FbhvS3bZ1VubUl6w-13" style="edgeStyle=orthogonalEdgeStyle;rounded=0;orthogonalLoop=1;jettySize=auto;html=1;exitX=0;exitY=0.5;exitDx=0;exitDy=0;entryX=1;entryY=0.5;entryDx=0;entryDy=0;" edge="1" parent="1" source="qrXm8jg2_IFLuV07bRKh-75" target="qrXm8jg2_IFLuV07bRKh-69">
          <mxGeometry relative="1" as="geometry" />
        </mxCell>
        <mxCell id="qrXm8jg2_IFLuV07bRKh-75" value="&lt;p style=&quot;margin:0px;margin-top:4px;text-align:center;&quot;&gt;&lt;font&gt;&lt;span&gt;Control System&lt;/span&gt;&lt;/font&gt;&lt;/p&gt;&lt;hr size=&quot;1&quot; style=&quot;border-style:solid;&quot;&gt;&lt;div style=&quot;text-align: center; height: 2px;&quot;&gt;&lt;font&gt;Ensures the elevator operate properly&lt;/font&gt;&lt;/div&gt;" style="verticalAlign=top;align=left;overflow=fill;html=1;gradientColor=#6666FF;gradientDirection=north;fontStyle=1;textShadow=0;whiteSpace=wrap;fontFamily=Times New Roman;" parent="1" vertex="1">
          <mxGeometry x="1117" y="-660" width="160" height="70" as="geometry" />
        </mxCell>
        <mxCell id="f8s1FbhvS3bZ1VubUl6w-23" style="edgeStyle=orthogonalEdgeStyle;rounded=0;orthogonalLoop=1;jettySize=auto;html=1;exitX=1;exitY=0.5;exitDx=0;exitDy=0;entryX=0;entryY=0.5;entryDx=0;entryDy=0;" edge="1" parent="1" source="qrXm8jg2_IFLuV07bRKh-79" target="qrXm8jg2_IFLuV07bRKh-72">
          <mxGeometry relative="1" as="geometry" />
        </mxCell>
        <mxCell id="qrXm8jg2_IFLuV07bRKh-79" value="&lt;p style=&quot;margin:0px;margin-top:4px;text-align:center;&quot;&gt;&lt;font&gt;&lt;span&gt;Electric Motor&lt;/span&gt;&lt;/font&gt;&lt;/p&gt;&lt;hr size=&quot;1&quot; style=&quot;border-style:solid;&quot;&gt;&lt;div style=&quot;text-align: center; height: 2px;&quot;&gt;&lt;font&gt;Generate torque to actuate the car&lt;/font&gt;&lt;/div&gt;" style="verticalAlign=top;align=left;overflow=fill;html=1;fillColor=#FFFFFF;strokeColor=default;gradientColor=#FF3333;gradientDirection=north;fontStyle=1;textShadow=0;whiteSpace=wrap;fontFamily=Times New Roman;" parent="1" vertex="1">
          <mxGeometry x="617" y="-780" width="160" height="70" as="geometry" />
        </mxCell>
        <mxCell id="f8s1FbhvS3bZ1VubUl6w-24" style="edgeStyle=orthogonalEdgeStyle;rounded=0;orthogonalLoop=1;jettySize=auto;html=1;exitX=1;exitY=0.75;exitDx=0;exitDy=0;entryX=0;entryY=0.25;entryDx=0;entryDy=0;" edge="1" parent="1" source="qrXm8jg2_IFLuV07bRKh-82" target="qrXm8jg2_IFLuV07bRKh-72">
          <mxGeometry relative="1" as="geometry" />
        </mxCell>
        <mxCell id="qrXm8jg2_IFLuV07bRKh-82" value="&lt;p style=&quot;margin:0px;margin-top:4px;text-align:center;&quot;&gt;&lt;font&gt;&lt;span&gt;Sheave&lt;/span&gt;&lt;/font&gt;&lt;/p&gt;&lt;hr size=&quot;1&quot; style=&quot;border-style:solid;&quot;&gt;&lt;div style=&quot;text-align: center; height: 2px;&quot;&gt;&lt;font&gt;Store and release the cable&lt;/font&gt;&lt;/div&gt;" style="verticalAlign=top;align=left;overflow=fill;html=1;fillColor=#FFFFFF;strokeColor=default;gradientColor=#FF3333;gradientDirection=north;fontStyle=1;textShadow=0;whiteSpace=wrap;fontFamily=Times New Roman;" parent="1" vertex="1">
          <mxGeometry x="617" y="-900" width="160" height="70" as="geometry" />
        </mxCell>
        <mxCell id="f8s1FbhvS3bZ1VubUl6w-10" style="edgeStyle=orthogonalEdgeStyle;rounded=0;orthogonalLoop=1;jettySize=auto;html=1;exitX=0.5;exitY=1;exitDx=0;exitDy=0;entryX=0.5;entryY=0;entryDx=0;entryDy=0;" edge="1" parent="1" source="qrXm8jg2_IFLuV07bRKh-83" target="qrXm8jg2_IFLuV07bRKh-72">
          <mxGeometry relative="1" as="geometry" />
        </mxCell>
        <mxCell id="qrXm8jg2_IFLuV07bRKh-83" value="&lt;p style=&quot;margin:0px;margin-top:4px;text-align:center;&quot;&gt;&lt;font&gt;&lt;span&gt;Cable&lt;/span&gt;&lt;/font&gt;&lt;/p&gt;&lt;hr size=&quot;1&quot; style=&quot;border-style:solid;&quot;&gt;&lt;div style=&quot;text-align: center; height: 2px;&quot;&gt;&lt;font&gt;Transfer force from machine to car&lt;/font&gt;&lt;/div&gt;" style="verticalAlign=top;align=left;overflow=fill;html=1;fillColor=#FFFFFF;strokeColor=default;gradientColor=#FF3333;gradientDirection=north;fontStyle=1;textShadow=0;whiteSpace=wrap;fontFamily=Times New Roman;" parent="1" vertex="1">
          <mxGeometry x="867" y="-900" width="160" height="70" as="geometry" />
        </mxCell>
        <mxCell id="qrXm8jg2_IFLuV07bRKh-92" style="edgeStyle=orthogonalEdgeStyle;rounded=0;orthogonalLoop=1;jettySize=auto;html=1;entryX=1;entryY=0.25;entryDx=0;entryDy=0;fontStyle=1;textShadow=0;fontFamily=Times New Roman;" parent="1" source="qrXm8jg2_IFLuV07bRKh-84" target="qrXm8jg2_IFLuV07bRKh-72" edge="1">
          <mxGeometry relative="1" as="geometry" />
        </mxCell>
        <mxCell id="qrXm8jg2_IFLuV07bRKh-84" value="&lt;p style=&quot;margin:0px;margin-top:4px;text-align:center;&quot;&gt;&lt;font&gt;&lt;span&gt;Overspeed Governor&lt;/span&gt;&lt;/font&gt;&lt;/p&gt;&lt;hr size=&quot;1&quot; style=&quot;border-style:solid;&quot;&gt;&lt;div style=&quot;text-align: center; height: 2px;&quot;&gt;Activated to ensure safety once the car is overspeed&lt;/div&gt;" style="verticalAlign=top;align=left;overflow=fill;html=1;fillColor=#FFFFFF;strokeColor=default;gradientColor=#FF3333;gradientDirection=north;fontStyle=1;textShadow=0;whiteSpace=wrap;fontFamily=Times New Roman;" parent="1" vertex="1">
          <mxGeometry x="1117" y="-900" width="160" height="70" as="geometry" />
        </mxCell>
        <mxCell id="qrXm8jg2_IFLuV07bRKh-97" style="edgeStyle=orthogonalEdgeStyle;rounded=0;orthogonalLoop=1;jettySize=auto;html=1;exitX=0;exitY=0.75;exitDx=0;exitDy=0;entryX=1;entryY=0.75;entryDx=0;entryDy=0;fontStyle=1;textShadow=0;fontFamily=Times New Roman;" parent="1" source="qrXm8jg2_IFLuV07bRKh-85" target="qrXm8jg2_IFLuV07bRKh-72" edge="1">
          <mxGeometry relative="1" as="geometry" />
        </mxCell>
        <mxCell id="qrXm8jg2_IFLuV07bRKh-85" value="&lt;p style=&quot;margin:0px;margin-top:4px;text-align:center;&quot;&gt;&lt;font&gt;&lt;span&gt;Machine Brake&lt;/span&gt;&lt;/font&gt;&lt;/p&gt;&lt;hr size=&quot;1&quot; style=&quot;border-style:solid;&quot;&gt;&lt;div style=&quot;text-align: center; height: 2px;&quot;&gt;Slow down the car&lt;/div&gt;" style="verticalAlign=top;align=left;overflow=fill;html=1;fillColor=#FFFFFF;strokeColor=default;gradientColor=#FF3333;gradientDirection=north;fontStyle=1;textShadow=0;whiteSpace=wrap;fontFamily=Times New Roman;" parent="1" vertex="1">
          <mxGeometry x="1117" y="-780" width="160" height="70" as="geometry" />
        </mxCell>
        <mxCell id="f8s1FbhvS3bZ1VubUl6w-22" style="edgeStyle=orthogonalEdgeStyle;rounded=0;orthogonalLoop=1;jettySize=auto;html=1;exitX=0.5;exitY=1;exitDx=0;exitDy=0;entryX=0.5;entryY=0;entryDx=0;entryDy=0;" edge="1" parent="1" source="qrXm8jg2_IFLuV07bRKh-99" target="qrXm8jg2_IFLuV07bRKh-74">
          <mxGeometry relative="1" as="geometry" />
        </mxCell>
        <mxCell id="qrXm8jg2_IFLuV07bRKh-99" value="&lt;p style=&quot;margin:0px;margin-top:4px;text-align:center;&quot;&gt;&lt;font&gt;&lt;span&gt;Emergency Brake&lt;/span&gt;&lt;/font&gt;&lt;/p&gt;&lt;hr size=&quot;1&quot; style=&quot;border-style:solid;&quot;&gt;&lt;div style=&quot;text-align: center; height: 2px;&quot;&gt;&lt;font&gt;Rapidly slow down the car when facing some problems&lt;/font&gt;&lt;/div&gt;" style="verticalAlign=top;align=left;overflow=fill;html=1;gradientColor=#00FF00;gradientDirection=north;fontStyle=1;textShadow=0;whiteSpace=wrap;fontFamily=Times New Roman;" parent="1" vertex="1">
          <mxGeometry x="617" y="-660" width="160" height="70" as="geometry" />
        </mxCell>
        <mxCell id="f8s1FbhvS3bZ1VubUl6w-21" style="edgeStyle=orthogonalEdgeStyle;rounded=0;orthogonalLoop=1;jettySize=auto;html=1;exitX=1;exitY=0.5;exitDx=0;exitDy=0;entryX=0;entryY=0.25;entryDx=0;entryDy=0;" edge="1" parent="1" source="qrXm8jg2_IFLuV07bRKh-100" target="qrXm8jg2_IFLuV07bRKh-74">
          <mxGeometry relative="1" as="geometry" />
        </mxCell>
        <mxCell id="qrXm8jg2_IFLuV07bRKh-100" value="&lt;p style=&quot;margin:0px;margin-top:4px;text-align:center;&quot;&gt;&lt;font&gt;&lt;span&gt;Guide Rails&lt;/span&gt;&lt;/font&gt;&lt;/p&gt;&lt;hr size=&quot;1&quot; style=&quot;border-style:solid;&quot;&gt;&lt;div style=&quot;text-align: center; height: 2px;&quot;&gt;manipulating the displacement of the car&lt;/div&gt;" style="verticalAlign=top;align=left;overflow=fill;html=1;gradientColor=#00FF00;gradientDirection=north;fontStyle=1;textShadow=0;whiteSpace=wrap;fontFamily=Times New Roman;" parent="1" vertex="1">
          <mxGeometry x="397" y="-660" width="160" height="70" as="geometry" />
        </mxCell>
        <mxCell id="qrXm8jg2_IFLuV07bRKh-114" style="edgeStyle=orthogonalEdgeStyle;rounded=0;orthogonalLoop=1;jettySize=auto;html=1;exitX=1;exitY=0.5;exitDx=0;exitDy=0;entryX=0;entryY=0.5;entryDx=0;entryDy=0;fontStyle=1;textShadow=0;fontFamily=Times New Roman;" parent="1" source="qrXm8jg2_IFLuV07bRKh-101" target="qrXm8jg2_IFLuV07bRKh-74" edge="1">
          <mxGeometry relative="1" as="geometry" />
        </mxCell>
        <mxCell id="qrXm8jg2_IFLuV07bRKh-101" value="&lt;p style=&quot;margin:0px;margin-top:4px;text-align:center;&quot;&gt;&lt;font&gt;&lt;span&gt;Car&lt;/span&gt;&lt;/font&gt;&lt;/p&gt;&lt;hr size=&quot;1&quot; style=&quot;border-style:solid;&quot;&gt;&lt;div style=&quot;text-align: center; height: 2px;&quot;&gt;Carry the passenger and protect people&lt;/div&gt;" style="verticalAlign=top;align=left;overflow=fill;html=1;gradientColor=#00FF00;gradientDirection=north;fontStyle=1;textShadow=0;whiteSpace=wrap;fontFamily=Times New Roman;" parent="1" vertex="1">
          <mxGeometry x="397" y="-540.5" width="160" height="70" as="geometry" />
        </mxCell>
        <mxCell id="f8s1FbhvS3bZ1VubUl6w-8" style="edgeStyle=orthogonalEdgeStyle;rounded=0;orthogonalLoop=1;jettySize=auto;html=1;exitX=0.75;exitY=0;exitDx=0;exitDy=0;entryX=0.25;entryY=1;entryDx=0;entryDy=0;" edge="1" parent="1" source="qrXm8jg2_IFLuV07bRKh-102" target="qrXm8jg2_IFLuV07bRKh-74">
          <mxGeometry relative="1" as="geometry" />
        </mxCell>
        <mxCell id="qrXm8jg2_IFLuV07bRKh-102" value="&lt;p style=&quot;margin:0px;margin-top:4px;text-align:center;&quot;&gt;&lt;font&gt;&lt;span&gt;Doors&lt;/span&gt;&lt;/font&gt;&lt;/p&gt;&lt;hr size=&quot;1&quot; style=&quot;border-style:solid;&quot;&gt;&lt;div style=&quot;text-align: center; height: 2px;&quot;&gt;Ensure people stay safe within the car/Prevent falling&lt;/div&gt;" style="verticalAlign=top;align=left;overflow=fill;html=1;gradientColor=#00FF00;gradientDirection=north;fontStyle=1;textShadow=0;whiteSpace=wrap;fontFamily=Times New Roman;" parent="1" vertex="1">
          <mxGeometry x="397" y="-420.5" width="160" height="70" as="geometry" />
        </mxCell>
        <mxCell id="f8s1FbhvS3bZ1VubUl6w-19" style="edgeStyle=orthogonalEdgeStyle;rounded=0;orthogonalLoop=1;jettySize=auto;html=1;exitX=1;exitY=0.5;exitDx=0;exitDy=0;entryX=0;entryY=0.5;entryDx=0;entryDy=0;" edge="1" parent="1" source="qrXm8jg2_IFLuV07bRKh-103" target="qrXm8jg2_IFLuV07bRKh-102">
          <mxGeometry relative="1" as="geometry" />
        </mxCell>
        <mxCell id="qrXm8jg2_IFLuV07bRKh-103" value="&lt;p style=&quot;margin:0px;margin-top:4px;text-align:center;&quot;&gt;&lt;font&gt;&lt;b&gt;Car Door&lt;/b&gt;&lt;/font&gt;&lt;/p&gt;&lt;hr style=&quot;border-style:solid;&quot; size=&quot;1&quot;&gt;&lt;div style=&quot;text-align: center; height: 2px;&quot;&gt;Ensure people stay safe within the car&lt;/div&gt;" style="verticalAlign=top;align=left;overflow=fill;html=1;gradientColor=#00FF00;gradientDirection=north;textShadow=0;whiteSpace=wrap;fontFamily=Times New Roman;" parent="1" vertex="1">
          <mxGeometry x="180" y="-420.5" width="160" height="70" as="geometry" />
        </mxCell>
        <mxCell id="qrXm8jg2_IFLuV07bRKh-106" style="edgeStyle=orthogonalEdgeStyle;rounded=0;orthogonalLoop=1;jettySize=auto;html=1;exitX=1;exitY=0.75;exitDx=0;exitDy=0;entryX=0;entryY=0.75;entryDx=0;entryDy=0;fontStyle=1;textShadow=0;fontFamily=Times New Roman;" parent="1" source="qrXm8jg2_IFLuV07bRKh-104" target="qrXm8jg2_IFLuV07bRKh-102" edge="1">
          <mxGeometry relative="1" as="geometry" />
        </mxCell>
        <mxCell id="qrXm8jg2_IFLuV07bRKh-104" value="&lt;p style=&quot;margin:0px;margin-top:4px;text-align:center;&quot;&gt;&lt;font&gt;&lt;b&gt;Hoist way Doors&lt;/b&gt;&lt;/font&gt;&lt;/p&gt;&lt;hr style=&quot;border-style:solid;&quot; size=&quot;1&quot;&gt;&lt;div style=&quot;text-align: center; height: 2px;&quot;&gt;Prevent falling&lt;/div&gt;" style="verticalAlign=top;align=left;overflow=fill;html=1;gradientColor=#00FF00;gradientDirection=north;textShadow=0;whiteSpace=wrap;fontFamily=Times New Roman;" parent="1" vertex="1">
          <mxGeometry x="180" y="-300" width="160" height="70" as="geometry" />
        </mxCell>
        <mxCell id="f8s1FbhvS3bZ1VubUl6w-9" style="edgeStyle=orthogonalEdgeStyle;rounded=0;orthogonalLoop=1;jettySize=auto;html=1;exitX=0.5;exitY=0;exitDx=0;exitDy=0;entryX=0.5;entryY=1;entryDx=0;entryDy=0;" edge="1" parent="1" source="qrXm8jg2_IFLuV07bRKh-107" target="qrXm8jg2_IFLuV07bRKh-102">
          <mxGeometry relative="1" as="geometry" />
        </mxCell>
        <mxCell id="qrXm8jg2_IFLuV07bRKh-107" value="&lt;p style=&quot;margin:0px;margin-top:4px;text-align:center;&quot;&gt;&lt;font&gt;&lt;span&gt;Door Operator&lt;/span&gt;&lt;/font&gt;&lt;/p&gt;&lt;hr size=&quot;1&quot; style=&quot;border-style:solid;&quot;&gt;&lt;div style=&quot;text-align: center; height: 2px;&quot;&gt;Open/ CLose the door, connect two types of doors&lt;/div&gt;" style="verticalAlign=top;align=left;overflow=fill;html=1;gradientColor=#00FF00;gradientDirection=north;fontStyle=1;textShadow=0;whiteSpace=wrap;fontFamily=Times New Roman;" parent="1" vertex="1">
          <mxGeometry x="397" y="-300" width="160" height="70" as="geometry" />
        </mxCell>
        <mxCell id="f8s1FbhvS3bZ1VubUl6w-20" style="edgeStyle=orthogonalEdgeStyle;rounded=0;orthogonalLoop=1;jettySize=auto;html=1;exitX=0.5;exitY=0;exitDx=0;exitDy=0;entryX=0.5;entryY=1;entryDx=0;entryDy=0;" edge="1" parent="1" source="qrXm8jg2_IFLuV07bRKh-109" target="qrXm8jg2_IFLuV07bRKh-74">
          <mxGeometry relative="1" as="geometry" />
        </mxCell>
        <mxCell id="qrXm8jg2_IFLuV07bRKh-109" value="&lt;p style=&quot;margin:0px;margin-top:4px;text-align:center;&quot;&gt;&lt;font&gt;&lt;span&gt;Counterweight&lt;/span&gt;&lt;/font&gt;&lt;/p&gt;&lt;hr size=&quot;1&quot; style=&quot;border-style:solid;&quot;&gt;&lt;div style=&quot;text-align: center; height: 2px;&quot;&gt;Balance the car weight, improve the efficiency&lt;/div&gt;" style="verticalAlign=top;align=left;overflow=fill;html=1;gradientColor=#00FF00;gradientDirection=north;fontStyle=1;textShadow=0;whiteSpace=wrap;fontFamily=Times New Roman;" parent="1" vertex="1">
          <mxGeometry x="617" y="-420.5" width="160" height="70" as="geometry" />
        </mxCell>
        <mxCell id="qrXm8jg2_IFLuV07bRKh-125" style="edgeStyle=orthogonalEdgeStyle;rounded=0;orthogonalLoop=1;jettySize=auto;html=1;exitX=1;exitY=0.25;exitDx=0;exitDy=0;entryX=0;entryY=0.75;entryDx=0;entryDy=0;" parent="1" source="qrXm8jg2_IFLuV07bRKh-119" target="qrXm8jg2_IFLuV07bRKh-75" edge="1">
          <mxGeometry relative="1" as="geometry" />
        </mxCell>
        <mxCell id="qrXm8jg2_IFLuV07bRKh-119" value="&lt;p style=&quot;margin:0px;margin-top:4px;text-align:center;&quot;&gt;&lt;font&gt;&lt;span&gt;Controller Box&lt;/span&gt;&lt;/font&gt;&lt;/p&gt;&lt;hr size=&quot;1&quot; style=&quot;border-style:solid;&quot;&gt;&lt;div style=&quot;text-align: center; height: 2px;&quot;&gt;Proceeding signals and control , respond to the user request&lt;/div&gt;" style="verticalAlign=top;align=left;overflow=fill;html=1;gradientColor=#6666FF;gradientDirection=north;fontStyle=1;textShadow=0;whiteSpace=wrap;fontFamily=Times New Roman;" parent="1" vertex="1">
          <mxGeometry x="867" y="-540.5" width="160" height="70" as="geometry" />
        </mxCell>
        <mxCell id="f8s1FbhvS3bZ1VubUl6w-14" style="edgeStyle=orthogonalEdgeStyle;rounded=0;orthogonalLoop=1;jettySize=auto;html=1;exitX=0.5;exitY=0;exitDx=0;exitDy=0;entryX=0.5;entryY=1;entryDx=0;entryDy=0;" edge="1" parent="1" source="qrXm8jg2_IFLuV07bRKh-120" target="qrXm8jg2_IFLuV07bRKh-75">
          <mxGeometry relative="1" as="geometry" />
        </mxCell>
        <mxCell id="qrXm8jg2_IFLuV07bRKh-120" value="&lt;p style=&quot;margin:0px;margin-top:4px;text-align:center;&quot;&gt;Communication System&lt;/p&gt;&lt;hr size=&quot;1&quot; style=&quot;border-style:solid;&quot;&gt;&lt;div style=&quot;text-align: center; height: 2px;&quot;&gt;Media between Security member and passenger&lt;/div&gt;" style="verticalAlign=top;align=left;overflow=fill;html=1;gradientColor=#6666FF;gradientDirection=north;fontStyle=1;textShadow=0;whiteSpace=wrap;fontFamily=Times New Roman;" parent="1" vertex="1">
          <mxGeometry x="1117" y="-540.5" width="160" height="70" as="geometry" />
        </mxCell>
        <mxCell id="qrXm8jg2_IFLuV07bRKh-128" style="edgeStyle=orthogonalEdgeStyle;rounded=0;orthogonalLoop=1;jettySize=auto;html=1;" parent="1" source="qrXm8jg2_IFLuV07bRKh-121" target="qrXm8jg2_IFLuV07bRKh-75" edge="1">
          <mxGeometry relative="1" as="geometry" />
        </mxCell>
        <mxCell id="qrXm8jg2_IFLuV07bRKh-121" value="&lt;p style=&quot;margin:0px;margin-top:4px;text-align:center;&quot;&gt;&lt;font&gt;&lt;span&gt;Command Panel&lt;/span&gt;&lt;/font&gt;&lt;/p&gt;&lt;hr size=&quot;1&quot; style=&quot;border-style:solid;&quot;&gt;&lt;div style=&quot;text-align: center; height: 2px;&quot;&gt;Control input from Users&lt;/div&gt;" style="verticalAlign=top;align=left;overflow=fill;html=1;gradientColor=#6666FF;gradientDirection=north;fontStyle=1;textShadow=0;whiteSpace=wrap;fontFamily=Times New Roman;" parent="1" vertex="1">
          <mxGeometry x="1370" y="-660" width="160" height="70" as="geometry" />
        </mxCell>
        <mxCell id="qrXm8jg2_IFLuV07bRKh-142" style="edgeStyle=orthogonalEdgeStyle;rounded=0;orthogonalLoop=1;jettySize=auto;html=1;exitX=1;exitY=0.5;exitDx=0;exitDy=0;entryX=0;entryY=0.5;entryDx=0;entryDy=0;" parent="1" source="qrXm8jg2_IFLuV07bRKh-129" target="qrXm8jg2_IFLuV07bRKh-120" edge="1">
          <mxGeometry relative="1" as="geometry" />
        </mxCell>
        <mxCell id="qrXm8jg2_IFLuV07bRKh-129" value="&lt;p style=&quot;margin:0px;margin-top:4px;text-align:center;&quot;&gt;Camera&lt;/p&gt;&lt;hr size=&quot;1&quot; style=&quot;border-style:solid;&quot;&gt;&lt;div style=&quot;text-align: center; height: 2px;&quot;&gt;Provide&amp;nbsp;surveillance footage for security&lt;/div&gt;" style="verticalAlign=top;align=left;overflow=fill;html=1;gradientColor=#6666FF;gradientDirection=north;fontStyle=1;textShadow=0;whiteSpace=wrap;fontFamily=Times New Roman;" parent="1" vertex="1">
          <mxGeometry x="867" y="-420.5" width="160" height="70" as="geometry" />
        </mxCell>
        <mxCell id="f8s1FbhvS3bZ1VubUl6w-17" style="edgeStyle=orthogonalEdgeStyle;rounded=0;orthogonalLoop=1;jettySize=auto;html=1;exitX=1;exitY=0.5;exitDx=0;exitDy=0;entryX=1;entryY=0.5;entryDx=0;entryDy=0;" edge="1" parent="1" source="qrXm8jg2_IFLuV07bRKh-130" target="qrXm8jg2_IFLuV07bRKh-120">
          <mxGeometry relative="1" as="geometry" />
        </mxCell>
        <mxCell id="qrXm8jg2_IFLuV07bRKh-130" value="&lt;p style=&quot;margin:0px;margin-top:4px;text-align:center;&quot;&gt;Alarm&lt;/p&gt;&lt;hr size=&quot;1&quot; style=&quot;border-style:solid;&quot;&gt;&lt;div style=&quot;text-align: center; height: 2px;&quot;&gt;Alert passenger when elevator is malfunctioning&lt;/div&gt;" style="verticalAlign=top;align=left;overflow=fill;html=1;gradientColor=#6666FF;gradientDirection=north;fontStyle=1;textShadow=0;whiteSpace=wrap;fontFamily=Times New Roman;" parent="1" vertex="1">
          <mxGeometry x="1117" y="-300" width="160" height="70" as="geometry" />
        </mxCell>
        <mxCell id="f8s1FbhvS3bZ1VubUl6w-16" style="edgeStyle=orthogonalEdgeStyle;rounded=0;orthogonalLoop=1;jettySize=auto;html=1;exitX=0.5;exitY=0;exitDx=0;exitDy=0;entryX=0.5;entryY=1;entryDx=0;entryDy=0;" edge="1" parent="1" source="qrXm8jg2_IFLuV07bRKh-131" target="qrXm8jg2_IFLuV07bRKh-120">
          <mxGeometry relative="1" as="geometry" />
        </mxCell>
        <mxCell id="qrXm8jg2_IFLuV07bRKh-131" value="&lt;p style=&quot;margin:0px;margin-top:4px;text-align:center;&quot;&gt;Wired Intercom&lt;/p&gt;&lt;hr size=&quot;1&quot; style=&quot;border-style:solid;&quot;&gt;&lt;div style=&quot;text-align: center; height: 2px;&quot;&gt;Establish voice communication&lt;/div&gt;" style="verticalAlign=top;align=left;overflow=fill;html=1;gradientColor=#6666FF;gradientDirection=north;fontStyle=1;textShadow=0;whiteSpace=wrap;fontFamily=Times New Roman;" parent="1" vertex="1">
          <mxGeometry x="1117" y="-420.5" width="160" height="70" as="geometry" />
        </mxCell>
        <mxCell id="f8s1FbhvS3bZ1VubUl6w-12" style="edgeStyle=orthogonalEdgeStyle;rounded=0;orthogonalLoop=1;jettySize=auto;html=1;exitX=0;exitY=0.25;exitDx=0;exitDy=0;entryX=0;entryY=0.75;entryDx=0;entryDy=0;" edge="1" parent="1" source="qrXm8jg2_IFLuV07bRKh-138" target="qrXm8jg2_IFLuV07bRKh-121">
          <mxGeometry relative="1" as="geometry" />
        </mxCell>
        <mxCell id="qrXm8jg2_IFLuV07bRKh-138" value="&lt;p style=&quot;margin:0px;margin-top:4px;text-align:center;&quot;&gt;&lt;font&gt;&lt;span&gt;Command from car&lt;/span&gt;&lt;/font&gt;&lt;/p&gt;&lt;hr size=&quot;1&quot; style=&quot;border-style:solid;&quot;&gt;&lt;div style=&quot;text-align: center; height: 2px;&quot;&gt;Present where to unload&lt;/div&gt;" style="verticalAlign=top;align=left;overflow=fill;html=1;gradientColor=#6666FF;gradientDirection=north;fontStyle=1;textShadow=0;whiteSpace=wrap;fontFamily=Times New Roman;" parent="1" vertex="1">
          <mxGeometry x="1370" y="-420.5" width="160" height="70" as="geometry" />
        </mxCell>
        <mxCell id="f8s1FbhvS3bZ1VubUl6w-11" value="" style="edgeStyle=orthogonalEdgeStyle;rounded=0;orthogonalLoop=1;jettySize=auto;html=1;" edge="1" parent="1" source="qrXm8jg2_IFLuV07bRKh-139" target="qrXm8jg2_IFLuV07bRKh-121">
          <mxGeometry relative="1" as="geometry" />
        </mxCell>
        <mxCell id="qrXm8jg2_IFLuV07bRKh-139" value="&lt;p style=&quot;margin:0px;margin-top:4px;text-align:center;&quot;&gt;Command from hoist way&lt;/p&gt;&lt;hr size=&quot;1&quot; style=&quot;border-style:solid;&quot;&gt;&lt;div style=&quot;text-align: center; height: 2px;&quot;&gt;&lt;font&gt;Present where to load&lt;/font&gt;&lt;/div&gt;" style="verticalAlign=top;align=left;overflow=fill;html=1;gradientColor=#6666FF;gradientDirection=north;fontStyle=1;textShadow=0;whiteSpace=wrap;fontFamily=Times New Roman;" parent="1" vertex="1">
          <mxGeometry x="1370" y="-540.5" width="160" height="70" as="geometry" />
        </mxCell>
        <mxCell id="qrXm8jg2_IFLuV07bRKh-148" style="edgeStyle=orthogonalEdgeStyle;rounded=0;orthogonalLoop=1;jettySize=auto;html=1;entryX=0.5;entryY=0;entryDx=0;entryDy=0;" parent="1" source="qrXm8jg2_IFLuV07bRKh-140" target="qrXm8jg2_IFLuV07bRKh-121" edge="1">
          <mxGeometry relative="1" as="geometry" />
        </mxCell>
        <mxCell id="qrXm8jg2_IFLuV07bRKh-140" value="&lt;p style=&quot;margin:0px;margin-top:4px;text-align:center;&quot;&gt;&lt;font&gt;&lt;span&gt;Emergency Button&lt;/span&gt;&lt;/font&gt;&lt;/p&gt;&lt;hr size=&quot;1&quot; style=&quot;border-style:solid;&quot;&gt;&lt;div style=&quot;text-align: center; height: 2px;&quot;&gt;Call the security if passenger facing some issues&lt;/div&gt;" style="verticalAlign=top;align=left;overflow=fill;html=1;gradientColor=#6666FF;gradientDirection=north;fontStyle=1;textShadow=0;whiteSpace=wrap;fontFamily=Times New Roman;" parent="1" vertex="1">
          <mxGeometry x="1370" y="-780" width="160" height="70" as="geometry" />
        </mxCell>
        <mxCell id="f8s1FbhvS3bZ1VubUl6w-30" style="edgeStyle=orthogonalEdgeStyle;rounded=0;orthogonalLoop=1;jettySize=auto;html=1;exitX=0.5;exitY=0;exitDx=0;exitDy=0;entryX=0;entryY=0.75;entryDx=0;entryDy=0;" edge="1" parent="1" source="f8s1FbhvS3bZ1VubUl6w-27" target="qrXm8jg2_IFLuV07bRKh-69">
          <mxGeometry relative="1" as="geometry" />
        </mxCell>
        <mxCell id="f8s1FbhvS3bZ1VubUl6w-27" value="&lt;p style=&quot;margin:0px;margin-top:4px;text-align:center;&quot;&gt;Power Supply&lt;/p&gt;&lt;hr size=&quot;1&quot; style=&quot;border-style:solid;&quot;&gt;&lt;div style=&quot;text-align: center; height: 2px;&quot;&gt;&amp;nbsp;Supply power to the Elevator&lt;/div&gt;" style="verticalAlign=top;align=left;overflow=fill;html=1;gradientColor=#8AC8FF;gradientDirection=north;fontStyle=1;textShadow=0;whiteSpace=wrap;fontFamily=Times New Roman;fillColor=default;" vertex="1" parent="1">
          <mxGeometry x="670" y="-300" width="325" height="70" as="geometry" />
        </mxCell>
      </root>
    </mxGraphModel>
  </diagram>
</mxfile>
